<svg id="Layer_1" data-name="Layer 1" xmlns="http://www.w3.org/2000/svg" viewBox="0 0 504.01 90.97"><defs><style>.cls-1{fill-rule:evenodd;}</style></defs><path d="M33.66,307.18H68.41q24.59,0,39.38-12.32t14.8-32.78q0-20.38-14.35-32.85T70.38,216.77H33.66Zm31.88-73.33a57.31,57.31,0,0,1,16,2.44,22,22,0,0,1,12.83,9.3,28.36,28.36,0,0,1,4.43,15.73q0,15.29-9.18,21.83T66.2,289.69H57V233.85Z" transform="translate(-33.66 -216.53)"/><path class="cls-1" d="M209.33,303.85c12.83-26.92,41.95-87.32,41.95-87.32h18.07s8.59,18.22,18.51,38.18c22.4,45,35.12,37,35.12,37s7.8,3.75,7.56,15.76c-40.56,0-54.49-26.17-70.22-61.14-3.85,7.93-23.86,52.13-28.3,61.15C227.57,307.46,212,305.54,209.33,303.85Z" transform="translate(-33.66 -216.53)"/><path d="M330.61,307.31c0-18.62-.1-59.12-.1-64.4,15.05,33,26.47,38.32,36.35,45.57.44-.88,27.71-53,27.71-53l62.71-.55-4-18.12-46.1-.32H380.47s-17.56,33.68-18.79,35.61c-11.43-12.74-21.11-35.61-21.11-35.61H312.19s0,60.65,0,87.45" transform="translate(-33.66 -216.53)"/><path d="M393.29,235.23H436l-49.11,72.22H502.19V288.62H422.93l48.83-72.09H393.29Z" transform="translate(-33.66 -216.53)"/><path d="M478.87,307.45H502.2V216.53H478.87Z" transform="translate(-33.66 -216.53)"/><path d="M514.34,307.45h23.32V216.53H514.34Z" transform="translate(-33.66 -216.53)"/><path class="cls-1" d="M233.29,303.69S195.6,281,196.62,269.55q11.64-4.29,16-11.84a29.19,29.19,0,0,0,4.34-14.53q0-12.26-9.45-19.45t-25.71-7.2h-47v90.92h23.33V272.27l.16-15.85V232.73H175q8.44,0,13.19,3t4.76,8.13c0,12.2-10.81,12.29-23.68,12.29,0,25.76,26,51.33,62.6,51.33A22.56,22.56,0,0,0,233.29,303.69Z" transform="translate(-33.66 -216.53)"/></svg>